<?xml version="1.0" encoding="utf-8"?>
<!-- Generator: Adobe Illustrator 23.0.6, SVG Export Plug-In . SVG Version: 6.00 Build 0)  -->
<svg version="1.1" id="Layer_1" xmlns="http://www.w3.org/2000/svg" xmlns:xlink="http://www.w3.org/1999/xlink" x="0px" y="0px"
	 viewBox="0 0 385 370" style="enable-background:new 0 0 385 370;" xml:space="preserve">
<polygon class="shape" points="0,125 124,125 124,83 144,83 144,44 164,44 164,22 184,22 184,0 204,0 204,22 224,22 224,44 245,44 
	245,83 265,83 265,125 385,125 385,165 365,165 365,185 345,185 345,205 325,205 325,225 305,225 305,268 325,268 325,309 345,309 
	345,370 285,370 285,350 265,350 265,330 224,330 224,310 163,310 163,330 122,330 122,350 102,350 102,370 40,370 40,309 60,309 
	60,268 80,268 80,225 60,225 60,205 40,205 40,185 20,185 20,165 0,165 "/>
<g>
	<rect x="144" y="146" width="20" height="60"/>
	<polygon points="124,145 124,125 0,125 0,145 0,165 20,165 20,145 	"/>
	<rect x="204" y="146" width="20" height="60"/>
	<polygon points="265,125 265,83 245,83 245,125 264,125 264,145 365,145 365,165 385,165 385,145 385,125 	"/>
	<rect x="124" y="83" width="20" height="42"/>
	<rect x="144" y="44" width="20" height="39"/>
	<rect x="164" y="22" width="20" height="22"/>
	<rect x="184" width="20" height="22"/>
	<rect x="204" y="22" width="20" height="22"/>
	<rect x="225" y="44" width="20" height="39"/>
	<rect x="20" y="165" width="20" height="20"/>
	<rect x="40" y="185" width="20" height="20"/>
	<rect x="60" y="205" width="20" height="20"/>
	<rect x="80" y="225" width="20" height="43"/>
	<rect x="285" y="225" width="20" height="43"/>
	<rect x="60" y="268" width="20" height="41"/>
	<polygon points="60,309 40,309 40,350 40,370 102,370 102,350 60,350 	"/>
	<rect x="102" y="330" width="20" height="20"/>
	<rect x="122" y="310" width="41" height="20"/>
	<rect x="163" y="290" width="61" height="20"/>
	<rect x="224" y="310" width="41" height="20"/>
	<rect x="265" y="330" width="20" height="20"/>
	<polygon points="285,350 285,370 345,370 345,350 345,309 325,309 325,350 	"/>
	<rect x="305" y="268" width="20" height="41"/>
	<rect x="305" y="205" width="20" height="20"/>
	<rect x="325" y="185" width="20" height="20"/>
	<rect x="345" y="165" width="20" height="20"/>
</g>
</svg>
