<svg width="66" height="13" viewBox="0 0 66 13" fill="none" xmlns="http://www.w3.org/2000/svg">
<path d="M0.756012 10V0.280014H3.16801C3.75201 0.280014 4.21601 0.388014 4.56001 0.604014C4.91201 0.812014 5.16801 1.11601 5.32801 1.51601C5.48801 1.91601 5.56801 2.40001 5.56801 2.96801C5.56801 3.48001 5.47601 3.92401 5.29201 4.30001C5.11601 4.67601 4.85201 4.96801 4.50001 5.17601C4.14801 5.37601 3.70801 5.47601 3.18001 5.47601H2.11201V10H0.756012ZM2.11201 4.50401H2.73601C3.12801 4.50401 3.43601 4.46001 3.66001 4.37201C3.88401 4.28401 4.04401 4.13201 4.14001 3.91601C4.23601 3.69201 4.28401 3.38001 4.28401 2.98001C4.28401 2.51601 4.24801 2.16001 4.17601 1.91201C4.11201 1.66401 3.97201 1.49201 3.75601 1.39601C3.54001 1.30001 3.20401 1.25201 2.74801 1.25201H2.11201V4.50401Z"/>
<path d="M8.25132 10.096C7.73932 10.096 7.33532 9.99202 7.03932 9.78402C6.74332 9.57602 6.53132 9.28002 6.40332 8.89602C6.28332 8.51202 6.22332 8.06001 6.22332 7.54001V5.52401C6.22332 5.00401 6.28332 4.55201 6.40332 4.16801C6.53132 3.78401 6.74332 3.48801 7.03932 3.28001C7.33532 3.07201 7.73932 2.96801 8.25132 2.96801C8.76332 2.96801 9.16332 3.07201 9.45132 3.28001C9.74732 3.48801 9.95533 3.78401 10.0753 4.16801C10.2033 4.55201 10.2673 5.00401 10.2673 5.52401V7.54001C10.2673 8.06001 10.2033 8.51202 10.0753 8.89602C9.95533 9.28002 9.74732 9.57602 9.45132 9.78402C9.16332 9.99202 8.76332 10.096 8.25132 10.096ZM8.25132 9.14801C8.49932 9.14801 8.67132 9.07601 8.76732 8.93201C8.87132 8.78801 8.93132 8.60002 8.94732 8.36802C8.97132 8.12802 8.98332 7.88001 8.98332 7.62401V5.45201C8.98332 5.18801 8.97132 4.94001 8.94732 4.70801C8.93132 4.47601 8.87132 4.28801 8.76732 4.14401C8.67132 3.99201 8.49932 3.91601 8.25132 3.91601C8.00332 3.91601 7.82732 3.99201 7.72332 4.14401C7.61932 4.28801 7.55532 4.47601 7.53132 4.70801C7.51532 4.94001 7.50732 5.18801 7.50732 5.45201V7.62401C7.50732 7.88001 7.51532 8.12802 7.53132 8.36802C7.55532 8.60002 7.61932 8.78801 7.72332 8.93201C7.82732 9.07601 8.00332 9.14801 8.25132 9.14801Z"/>
<path d="M13.337 10.096C12.769 10.096 12.337 9.98402 12.041 9.76002C11.753 9.52802 11.557 9.20402 11.453 8.78802C11.357 8.37202 11.309 7.88801 11.309 7.33601V5.74001C11.309 5.15601 11.361 4.66001 11.465 4.25201C11.569 3.83601 11.765 3.52001 12.053 3.30401C12.349 3.08001 12.777 2.96801 13.337 2.96801C13.841 2.96801 14.229 3.05201 14.501 3.22002C14.781 3.38001 14.973 3.62401 15.077 3.95201C15.181 4.27201 15.233 4.67201 15.233 5.15201V5.56001H14.069V5.14001C14.069 4.83601 14.049 4.59601 14.009 4.42001C13.969 4.24401 13.897 4.11601 13.793 4.03602C13.689 3.95601 13.541 3.91601 13.349 3.91601C13.141 3.91601 12.981 3.96401 12.869 4.06001C12.757 4.15601 12.681 4.32001 12.641 4.55201C12.609 4.77601 12.593 5.08401 12.593 5.47601V7.66001C12.593 8.25201 12.649 8.64801 12.761 8.84801C12.873 9.04801 13.073 9.14801 13.361 9.14801C13.577 9.14801 13.733 9.10001 13.829 9.00401C13.933 8.90001 13.997 8.75601 14.021 8.57201C14.053 8.38801 14.069 8.18001 14.069 7.94801V7.38401H15.233V7.86402C15.233 8.32802 15.177 8.72801 15.065 9.06401C14.961 9.40001 14.769 9.65601 14.489 9.83201C14.217 10.008 13.833 10.096 13.337 10.096Z"/>
<path d="M16.3986 9.98801V0.268014H17.6826V6.06401L19.5546 3.06401H20.8986L19.2666 5.77601L20.8506 10H19.5666L18.2706 6.44801L17.6826 7.33601V9.98801H16.3986Z"/>
<path d="M23.4391 10.096C22.8951 10.096 22.4751 9.99202 22.1791 9.78402C21.8831 9.56802 21.6751 9.25601 21.5551 8.84801C21.4431 8.43201 21.3871 7.92402 21.3871 7.32402V5.74001C21.3871 5.12401 21.4471 4.61201 21.5671 4.20401C21.6871 3.79601 21.8951 3.48801 22.1911 3.28001C22.4951 3.07201 22.9111 2.96801 23.4391 2.96801C24.0231 2.96801 24.4511 3.08801 24.7231 3.32801C25.0031 3.56801 25.1871 3.91601 25.2751 4.37201C25.3631 4.82001 25.4071 5.36001 25.4071 5.99201V6.55601H22.6711V7.94801C22.6711 8.22801 22.6951 8.45602 22.7431 8.63202C22.7991 8.80802 22.8831 8.94002 22.9951 9.02802C23.1151 9.10802 23.2671 9.14801 23.4511 9.14801C23.6431 9.14801 23.7871 9.10401 23.8831 9.01601C23.9871 8.92001 24.0551 8.78801 24.0871 8.62001C24.1271 8.44401 24.1471 8.24001 24.1471 8.00801V7.58802H25.3951V7.85202C25.3951 8.54801 25.2471 9.09602 24.9511 9.49602C24.6551 9.89602 24.1511 10.096 23.4391 10.096ZM22.6711 5.86001H24.1471V5.23601C24.1471 4.94801 24.1311 4.70801 24.0991 4.51601C24.0671 4.31601 23.9991 4.16801 23.8951 4.07201C23.7991 3.96801 23.6431 3.91601 23.4271 3.91601C23.2191 3.91601 23.0591 3.96401 22.9471 4.06001C22.8431 4.15601 22.7711 4.32001 22.7311 4.55201C22.6911 4.77601 22.6711 5.08801 22.6711 5.48801V5.86001Z"/>
<path d="M28.4179 10.096C28.0579 10.096 27.7659 10.028 27.5419 9.89202C27.3259 9.75602 27.1659 9.56402 27.0619 9.31602C26.9659 9.06802 26.9179 8.77601 26.9179 8.44001V3.91601H26.1859V3.06401H26.9179V1.03601H28.2019V3.06401H29.3179V3.91601H28.2019V8.35601C28.2019 8.62801 28.2459 8.82402 28.3339 8.94402C28.4219 9.05602 28.5899 9.11201 28.8379 9.11201C28.9019 9.11201 28.9739 9.10802 29.0539 9.10002C29.1419 9.09202 29.2259 9.08402 29.3059 9.07602V10.024C29.1459 10.048 28.9979 10.064 28.8619 10.072C28.7259 10.088 28.5779 10.096 28.4179 10.096Z"/>
<path d="M35.4275 10.12C34.8195 10.12 34.3315 9.99202 33.9635 9.73602C33.6035 9.47202 33.3395 9.09201 33.1715 8.59601C33.0115 8.10001 32.9315 7.50401 32.9315 6.80801V3.55601C32.9315 2.84401 33.0035 2.24001 33.1475 1.74401C33.2995 1.24001 33.5635 0.856014 33.9395 0.592014C34.3235 0.328014 34.8555 0.196014 35.5355 0.196014C36.1435 0.196014 36.6315 0.300014 36.9995 0.508015C37.3755 0.708014 37.6475 1.02001 37.8155 1.44401C37.9835 1.86001 38.0675 2.38801 38.0675 3.02801V3.38801H36.7955V3.08801C36.7955 2.66401 36.7675 2.32001 36.7115 2.05601C36.6555 1.78401 36.5395 1.58401 36.3635 1.45601C36.1955 1.32001 35.9275 1.25201 35.5595 1.25201C35.1595 1.25201 34.8675 1.34401 34.6835 1.52801C34.5075 1.71201 34.3955 1.96401 34.3475 2.28401C34.3075 2.59601 34.2875 2.95201 34.2875 3.35201V6.95201C34.2875 7.41601 34.3195 7.80401 34.3835 8.11601C34.4555 8.42801 34.5875 8.66002 34.7795 8.81202C34.9715 8.96402 35.2435 9.04001 35.5955 9.04001C35.9475 9.04001 36.2195 8.95602 36.4115 8.78802C36.6035 8.62002 36.7355 8.37201 36.8075 8.04401C36.8795 7.71601 36.9155 7.30801 36.9155 6.82001V6.14801H35.6795V5.18801H38.1395V10H37.2875L37.1555 8.88401C37.0275 9.24401 36.8275 9.54001 36.5555 9.77201C36.2835 10.004 35.9075 10.12 35.4275 10.12Z"/>
<path d="M40.6734 10.096C40.4014 10.096 40.1614 10.02 39.9534 9.86802C39.7454 9.70802 39.5814 9.50801 39.4614 9.26801C39.3414 9.02001 39.2814 8.76001 39.2814 8.48801C39.2814 8.05601 39.3534 7.69201 39.4974 7.39601C39.6414 7.10001 39.8374 6.85201 40.0854 6.65201C40.3414 6.44401 40.6334 6.26401 40.9614 6.11201C41.2974 5.96001 41.6494 5.81201 42.0174 5.66801V5.17601C42.0174 4.89601 42.0014 4.66401 41.9694 4.48001C41.9374 4.29601 41.8694 4.16001 41.7654 4.07201C41.6694 3.97601 41.5214 3.92801 41.3214 3.92801C41.1454 3.92801 41.0014 3.96801 40.8894 4.04801C40.7854 4.12801 40.7094 4.24401 40.6614 4.39601C40.6134 4.54001 40.5894 4.71201 40.5894 4.91201V5.26002L39.3174 5.21201C39.3334 4.44401 39.5094 3.88001 39.8454 3.52001C40.1814 3.15201 40.7014 2.96801 41.4054 2.96801C42.0934 2.96801 42.5814 3.15601 42.8694 3.53201C43.1574 3.90801 43.3014 4.45201 43.3014 5.16401V8.33201C43.3014 8.54801 43.3054 8.75601 43.3134 8.95601C43.3294 9.15601 43.3454 9.34401 43.3614 9.52001C43.3854 9.68801 43.4054 9.84802 43.4214 10H42.2454C42.2214 9.87202 42.1894 9.71201 42.1494 9.52001C42.1174 9.32001 42.0934 9.14001 42.0774 8.98001C41.9974 9.25201 41.8414 9.50801 41.6094 9.74801C41.3854 9.98001 41.0734 10.096 40.6734 10.096ZM41.1774 8.99201C41.3054 8.99201 41.4254 8.95601 41.5374 8.88401C41.6494 8.81201 41.7494 8.73201 41.8374 8.64401C41.9254 8.54801 41.9854 8.47202 42.0174 8.41602V6.44801C41.8174 6.56001 41.6294 6.67202 41.4534 6.78402C41.2774 6.89602 41.1214 7.01601 40.9854 7.14401C40.8574 7.26401 40.7534 7.40401 40.6734 7.56401C40.6014 7.71601 40.5654 7.89201 40.5654 8.09201C40.5654 8.37201 40.6174 8.59201 40.7214 8.75201C40.8254 8.91201 40.9774 8.99201 41.1774 8.99201Z"/>
<path d="M44.5347 10V3.06401H45.7227V3.72401C45.9547 3.46001 46.2107 3.26401 46.4907 3.13601C46.7707 3.00801 47.0587 2.94402 47.3547 2.94402C47.6107 2.94402 47.8387 3.00801 48.0387 3.13601C48.2467 3.26401 48.3947 3.49201 48.4827 3.82001C48.7307 3.51601 48.9987 3.29601 49.2867 3.16001C49.5827 3.01601 49.8907 2.94402 50.2107 2.94402C50.4347 2.94402 50.6387 3.00001 50.8227 3.11201C51.0067 3.21601 51.1547 3.38801 51.2667 3.62801C51.3787 3.86001 51.4347 4.16801 51.4347 4.55201V10H50.2587V4.63601C50.2587 4.30001 50.2027 4.07601 50.0907 3.96401C49.9867 3.84401 49.8427 3.78401 49.6587 3.78401C49.4827 3.78401 49.2987 3.83601 49.1067 3.94001C48.9147 4.03601 48.7387 4.17201 48.5787 4.34801C48.5787 4.38001 48.5787 4.41201 48.5787 4.44401C48.5787 4.47601 48.5787 4.51201 48.5787 4.55201V10H47.4027V4.63601C47.4027 4.30001 47.3467 4.07601 47.2347 3.96401C47.1307 3.84401 46.9867 3.78401 46.8027 3.78401C46.6267 3.78401 46.4427 3.83601 46.2507 3.94001C46.0667 4.03601 45.8907 4.17201 45.7227 4.34801V10H44.5347Z"/>
<path d="M52.775 10V3.06401H54.059V10H52.775ZM52.775 2.03201V0.688015H54.059V2.03201H52.775Z"/>
<path d="M55.4332 10V3.06401H56.7172V3.74801C56.9492 3.53201 57.2052 3.34801 57.4852 3.19601C57.7652 3.04401 58.0732 2.96801 58.4092 2.96801C58.6892 2.96801 58.9012 3.04001 59.0452 3.18401C59.1972 3.32801 59.3012 3.50801 59.3572 3.72401C59.4212 3.94001 59.4532 4.16001 59.4532 4.38401V10H58.1692V4.75601C58.1692 4.50801 58.1332 4.31602 58.0612 4.18002C57.9892 4.04401 57.8412 3.97601 57.6172 3.97601C57.4732 3.97601 57.3212 4.02001 57.1612 4.10801C57.0092 4.18801 56.8612 4.28801 56.7172 4.40801V10H55.4332Z"/>
<path d="M62.5066 12.148C62.0906 12.148 61.7146 12.104 61.3786 12.016C61.0426 11.928 60.7786 11.788 60.5866 11.596C60.3946 11.404 60.2986 11.152 60.2986 10.84C60.2986 10.616 60.3466 10.42 60.4426 10.252C60.5386 10.084 60.6626 9.94001 60.8146 9.82001C60.9666 9.69201 61.1266 9.58801 61.2946 9.50801C61.0706 9.44401 60.9026 9.34402 60.7906 9.20802C60.6786 9.06402 60.6226 8.91602 60.6226 8.76402C60.6226 8.50802 60.6906 8.28801 60.8266 8.10401C60.9626 7.92001 61.1506 7.72001 61.3906 7.50401C61.1266 7.30401 60.9266 7.04801 60.7906 6.73601C60.6546 6.42401 60.5866 5.99201 60.5866 5.44001C60.5866 4.89601 60.6586 4.44401 60.8026 4.08401C60.9546 3.71601 61.1746 3.44001 61.4626 3.25601C61.7586 3.06401 62.1186 2.96801 62.5426 2.96801C62.9186 2.96801 63.2186 3.03201 63.4426 3.16001C63.6746 3.28801 63.8506 3.48001 63.9706 3.73601C64.0106 3.67201 64.1186 3.56401 64.2946 3.41201C64.4706 3.25201 64.6746 3.12001 64.9066 3.01601L65.0986 2.93201L65.4226 3.76001C65.3186 3.77601 65.1786 3.81601 65.0026 3.88001C64.8346 3.93601 64.6746 3.99601 64.5226 4.06001C64.3786 4.11601 64.2866 4.16401 64.2466 4.20401C64.3026 4.34001 64.3506 4.53601 64.3906 4.79201C64.4386 5.04801 64.4626 5.27601 64.4626 5.47601C64.4626 5.94801 64.4026 6.36401 64.2826 6.72401C64.1626 7.08401 63.9626 7.36801 63.6826 7.57601C63.4106 7.77602 63.0306 7.87602 62.5426 7.87602C62.4386 7.87602 62.3266 7.86802 62.2066 7.85202C62.0866 7.83601 61.9786 7.81601 61.8826 7.79201C61.8346 7.86401 61.7826 7.94801 61.7266 8.04401C61.6786 8.14001 61.6546 8.23201 61.6546 8.32001C61.6546 8.40801 61.6986 8.48001 61.7866 8.53601C61.8826 8.58401 62.0306 8.61602 62.2306 8.63202L63.3106 8.72801C63.8546 8.77601 64.2586 8.94001 64.5226 9.22001C64.7866 9.50001 64.9186 9.90002 64.9186 10.42C64.9186 10.796 64.8306 11.112 64.6546 11.368C64.4786 11.632 64.2106 11.828 63.8506 11.956C63.4986 12.084 63.0506 12.148 62.5066 12.148ZM62.6026 11.14C63.0586 11.14 63.3946 11.084 63.6106 10.972C63.8266 10.868 63.9346 10.696 63.9346 10.456C63.9346 10.312 63.9066 10.192 63.8506 10.096C63.8026 10 63.7106 9.92402 63.5746 9.86802C63.4386 9.81202 63.2426 9.77201 62.9866 9.74801L61.8946 9.65202C61.8066 9.74002 61.7226 9.82802 61.6426 9.91602C61.5626 10.004 61.4986 10.096 61.4506 10.192C61.4026 10.296 61.3786 10.404 61.3786 10.516C61.3786 10.724 61.4666 10.88 61.6426 10.984C61.8186 11.088 62.1386 11.14 62.6026 11.14ZM62.5426 6.97601C62.7266 6.97601 62.8706 6.94402 62.9746 6.88001C63.0866 6.80801 63.1706 6.70801 63.2266 6.58001C63.2826 6.44401 63.3186 6.28001 63.3346 6.08802C63.3586 5.89601 63.3706 5.68001 63.3706 5.44001C63.3706 5.20001 63.3586 4.98401 63.3346 4.79201C63.3186 4.59201 63.2826 4.42401 63.2266 4.28801C63.1786 4.14401 63.0986 4.03601 62.9866 3.96401C62.8826 3.89201 62.7386 3.85601 62.5546 3.85601C62.3786 3.85601 62.2306 3.89201 62.1106 3.96401C61.9986 4.03601 61.9146 4.14001 61.8586 4.27601C61.8026 4.40401 61.7626 4.56801 61.7386 4.76801C61.7146 4.96001 61.7026 5.18401 61.7026 5.44001C61.7026 5.65601 61.7106 5.86001 61.7266 6.05201C61.7506 6.23601 61.7906 6.39601 61.8466 6.53201C61.9106 6.66801 61.9986 6.77601 62.1106 6.85601C62.2226 6.93601 62.3666 6.97601 62.5426 6.97601Z"/>
</svg>
