<svg width="339" height="361" viewBox="0 0 339 361" fill="none" xmlns="http://www.w3.org/2000/svg">
<path class="moon-shape" d="M15 256V240.5H82V217.5H127.5V195.5H150V98H127.5V53H103V32H81.5V14H188V36.5H233.5V58.5H256V81.5H278.5V104.5H300.5V149.5H323.5V211H300.5V256H279V278.5H256V300.5H233V323.5H188V345.5H127.5V323.5H83V300.5H60V278.5H38V256H15Z"/>
<path fill-rule="evenodd" clip-rule="evenodd" d="M227.5 248V225.5H247.5V248H227.5Z"/>
<path fill-rule="evenodd" clip-rule="evenodd" d="M249.5 226V203.5H269.5V226H249.5Z"/>
<path fill-rule="evenodd" clip-rule="evenodd" d="M202.5 22V0H68V45H90V67.5H113V113H135.5V181H113V203H68V225.5H0V271H23V293.5H45V315.5H68V338.5H113V360.5H203V338.5H248V315.5H271V292.5H293.5V270.5H315.5V225.5H338.5V134.5H315.5V90H293V67.5H270.5V44.5H248V22.5L202.5 22ZM233 37.3361L187.5 36.8361V15H83V30H105V52.5H128V98H150.5V196H128V218H83V240.5H15V256H38V278.5H60V300.5H83V323.5H128V345.5H188V323.5H233V300.5H256V277.5H278.5V255.5H300.5V210.5H323.5V149.5H300.5V105H278V82.5H255.5V59.5H233V37.3361Z"/>
<path fill-rule="evenodd" clip-rule="evenodd" d="M181.5 179.5V112.5H201.5V179.5H181.5Z"/>
<path fill-rule="evenodd" clip-rule="evenodd" d="M228.5 179.5V112.5H248.5V179.5H228.5Z"/>
<path fill-rule="evenodd" clip-rule="evenodd" d="M136.5 248V203.5H156.5V248H136.5Z"/>
<path fill-rule="evenodd" clip-rule="evenodd" d="M225.5 269.5H158.5V249.5H225.5V269.5Z"/>
</svg>
